<?xml version="1.0" encoding="UTF-8" standalone="no"?>
<!-- Created with Inkscape (http://www.inkscape.org/) -->

<svg
   width="27.118248mm"
   height="27.152107mm"
   viewBox="0 0 27.118248 27.152107"
   version="1.1"
   id="svg567"
   xml:space="preserve"
   inkscape:version="1.2.2 (732a01da63, 2022-12-09)"
   sodipodi:docname="i-coin.svg"
   xmlns:inkscape="http://www.inkscape.org/namespaces/inkscape"
   xmlns:sodipodi="http://sodipodi.sourceforge.net/DTD/sodipodi-0.dtd"
   xmlns="http://www.w3.org/2000/svg"
   xmlns:svg="http://www.w3.org/2000/svg"><sodipodi:namedview
     id="namedview569"
     pagecolor="#ffffff"
     bordercolor="#111111"
     borderopacity="1"
     inkscape:showpageshadow="0"
     inkscape:pageopacity="0"
     inkscape:pagecheckerboard="1"
     inkscape:deskcolor="#d1d1d1"
     inkscape:document-units="mm"
     showgrid="false"
     inkscape:zoom="7.319248"
     inkscape:cx="335.00709"
     inkscape:cy="360.28291"
     inkscape:window-width="3840"
     inkscape:window-height="2054"
     inkscape:window-x="-11"
     inkscape:window-y="-11"
     inkscape:window-maximized="1"
     inkscape:current-layer="layer1" /><defs
     id="defs564" /><g
     inkscape:label="Layer 1"
     inkscape:groupmode="layer"
     id="layer1"
     transform="translate(-75.218477,-75.46166)"><path
       id="path639"
       style="fill:#000000;stroke-width:0.0118691"
       d="m 88.286321,102.53351 c -0.584086,0.16798 -0.216164,-1.86516 -0.614823,-0.72493 0.148312,1.26499 -2.398027,0.56814 -1.471602,-0.57333 -0.510289,-0.10514 -0.319782,1.50782 -1.248206,0.72541 -1.122742,0.25608 0.0207,-2.081508 -0.718663,-0.85627 -0.343057,1.12633 -2.221682,-0.20364 -1.161066,-1.01481 -0.488193,-0.0703 -0.68201,1.35523 -1.371088,0.41187 -1.103073,-0.0469 0.537426,-1.975954 -0.459864,-0.992749 -0.599199,0.960349 -1.910473,-0.675845 -0.723985,-1.161502 -0.433809,-0.157072 -0.971453,1.051017 -1.39946,0.0811 -0.913666,-0.435936 -0.167063,-0.973038 0.107545,-1.37346 -0.401555,-0.180776 -1.090264,0.971544 -1.374508,-0.126165 -0.867742,-0.533599 1.411244,-1.596465 -0.187494,-0.952732 -0.765207,0.280608 -1.577076,-1.648242 -0.263675,-1.684964 -0.25727,-0.461765 -1.325434,0.62795 -1.275284,-0.536356 -0.745839,-0.714244 1.630874,-1.162716 0.108726,-0.985378 -0.868797,0.210141 -1.046116,-1.856251 0.168631,-1.514759 -0.173294,-0.444654 -1.358543,0.215649 -1.059015,-0.815743 -0.609352,-0.827516 1.765348,-0.733384 0.412527,-0.92328 -1.139996,-0.14067 0.02336,-0.64513 0.434927,-0.629419 -0.385968,-0.222449 -1.26752,-0.183577 -0.871358,-1.057925 -0.49429,-1.111714 2.072248,-0.42925 0.416304,-0.982727 -0.64489,-0.365968 0.03913,-1.976169 0.926201,-1.251061 0.0082,-0.466301 -1.3075,-0.368978 -0.579321,-1.172039 -0.09344,-1.01114 1.975924,0.235796 0.662776,-0.689513 -0.636901,-0.432001 0.471204,-2.003952 1.144416,-1.02268 0.273548,-0.437222 -1.148486,-0.668171 -0.264138,-1.239933 0.106156,-1.186732 1.23101,0.239192 1.239519,-0.332187 -1.235541,-0.64118 0.400759,-1.790208 0.926305,-0.912099 -0.322256,-0.463238 -0.632782,-1.064119 0.250296,-1.442355 0.294662,-0.807242 1.355266,0.980794 0.963585,-0.03356 -0.82306,-0.752316 1.194309,-1.72921 1.300309,-0.500041 0.283309,-0.381727 -0.611879,-1.235767 0.556962,-1.320466 0.587311,-0.723082 1.141523,1.399164 0.914407,0.07449 -0.364369,-0.808638 1.8171,-1.356489 1.584323,-0.08554 0.324998,-0.307958 -0.178573,-1.292388 0.858154,-1.11771 0.69673,-0.427373 0.835414,1.714709 0.849173,0.183396 0.142957,-0.736274 1.998674,-0.647036 1.567708,0.462117 0.525219,-0.04152 0.03651,-1.381009 1.049545,-0.867456 1.131799,-0.531814 0.462967,1.995879 0.999244,0.445638 0.365481,-0.631126 2.141946,-0.08983 1.453729,0.884919 0.410519,-0.137073 0.486978,-1.202628 1.278226,-0.518732 0.918981,-0.06237 -0.07204,1.88076 0.662104,0.640812 0.548187,-0.638214 1.747239,0.488645 0.964111,1.103259 0.415424,0.07974 0.670581,-1.130329 1.242002,-0.272145 1.109874,0.155141 -0.06561,1.204043 0.363842,1.248315 0.449677,-1.224607 2.048346,0.378392 0.848105,0.877139 0.380944,0.358599 0.934208,-1.001488 1.286597,0.06976 0.992055,0.474614 -0.164931,0.913649 -0.05196,1.341527 0.769419,-1.062378 1.7951,0.543271 0.621131,0.867671 0.434007,0.02808 1.167539,-0.58202 1.293979,0.465765 0.35311,0.467224 -1.300256,1.135583 -0.0304,0.7245 0.72126,-0.196086 1.29592,1.687256 0.0779,1.554604 0.21832,0.393818 1.28999,-0.355859 1.12503,0.72667 0.75952,0.851734 -1.69292,0.965622 -0.14659,1.002242 0.77068,0.0092 0.78019,1.988739 -0.36303,1.555185 0.0324,0.510091 1.38788,-0.129083 0.93515,0.897892 0.0278,0.510122 -1.66564,0.375494 -0.50677,0.59394 0.96966,0.03116 0.38693,2.146366 -0.61376,1.424455 0.057,0.433683 1.29551,0.304698 0.67836,1.140266 0.24406,0.991942 -1.89995,-0.0254 -0.71997,0.688468 0.89803,0.297309 -0.10332,2.172745 -0.95619,1.19899 0.12249,0.462003 1.15419,0.749453 0.31107,1.457759 -0.16357,0.781919 -1.864376,-0.492092 -0.75415,0.45621 0.6508,0.593523 -0.756519,1.925368 -1.289012,0.779339 -0.36945,0.431566 1.206178,0.821476 0.18896,1.310152 -0.233851,0.907443 -1.715583,-1.022234 -0.984184,0.169371 0.855083,0.779398 -1.082668,1.881215 -1.341032,0.561695 -0.477202,0.321356 0.980334,1.23043 -0.254333,1.43161 -0.625691,1.07099 -1.553354,-1.493014 -1.105182,0.0841 0.434266,0.93533 -1.703247,1.44443 -1.603174,0.1296 -0.410541,0.29531 0.484203,1.4348 -0.68457,1.34524 -0.867798,0.87444 -1.081524,-1.76949 -1.132115,-0.32065 0.401728,1.13443 -2.251643,1.18402 -1.689365,-0.19829 -0.546554,0.08 0.165963,1.50524 -0.917877,1.09308 -0.194898,0.001 -0.389871,0.002 -0.584673,-0.006 z m 1.020433,-1.35204 c 5.363034,-0.17162 10.240023,-4.284367 11.418126,-9.499611 1.12394,-4.585925 -0.781315,-9.676433 -4.571115,-12.472025 -4.103292,-3.215638 -10.273479,-3.302218 -14.477799,-0.23288 -3.975009,2.757088 -6.065034,7.985681 -4.894483,12.707874 1.276392,5.61005 6.752666,9.827452 12.525271,9.496642 z m -1.175047,-0.68931 C 82.601855,100.25906 77.655091,95.576081 77.203882,90.046167 76.627641,84.979985 79.920305,79.86849 84.688525,78.1479 c 4.477809,-1.745263 9.927569,-0.297696 12.964803,3.422329 3.162382,3.63772 3.597612,9.318196 0.989751,13.378211 -2.183657,3.56408 -6.320588,5.80448 -10.511372,5.54372 z m 1.293738,-0.34396 c 5.396225,-0.236462 10.170749,-4.860062 10.553409,-10.253243 0.476846,-4.796885 -2.56908,-9.615953 -7.052007,-11.340058 -1.298643,-0.520766 -2.695162,-0.800549 -4.09529,-0.794946 -0.31716,0.493371 0.73726,0.935695 0.159975,1.027695 -0.628897,0.121045 0.824392,0.909605 0.128899,1.294882 -0.91418,0.671593 1.422112,-0.02931 1.865809,0.401203 1.261185,0.247698 2.564772,0.755933 3.169597,1.997951 0.815634,0.89061 1.52056,2.022024 1.473965,3.286572 0.251672,1.137696 -0.112005,2.327885 -0.48913,3.403462 -0.640093,0.957161 -1.682997,1.497253 -1.668362,2.825156 -0.44062,1.240538 1.461478,2.604661 0.289914,3.439729 -1.193087,0.655537 -2.275182,1.760287 -3.728263,1.667522 -0.454084,0.109375 -1.007814,0.282249 -1.201106,0.402288 -0.167825,1.422087 0.447824,-0.260172 1.15775,0.210653 0.923438,0.423628 1.176386,2.183059 -0.237026,1.852308 -0.433212,0.04109 -1.244042,0.06983 -0.845275,0.597796 0.172467,-0.004 0.344873,-0.0102 0.517141,-0.019 z m 2.15729,-0.939904 c -0.484826,-0.676599 -0.629493,-1.453923 -0.298134,-1.982723 0.889825,-0.426155 1.536061,0.436365 1.206023,1.172792 0.786054,1.022285 -0.846064,-0.162569 -0.551624,0.690128 -0.109949,-0.01117 -0.240647,0.198941 -0.356265,0.119803 z m 0.15101,-0.135125 c 0.34945,-0.335497 -0.470844,-0.03723 0,0 z m 0.784125,-0.278887 c 0.261912,-0.399194 -0.739755,-0.468399 -0.102586,0.03708 z m -0.501251,-0.632461 c 0.552208,-0.570804 -0.352756,0.136093 0,0 z m -0.09151,-0.193854 c -0.558304,-0.611333 -0.431812,0.286606 0,0 z m -0.06649,0.0096 c 0.0014,-0.05135 0.0362,0.0108 0,0 z m -0.504635,0.03824 c 0.331384,-0.753824 -0.664368,-0.207859 0,0 z m 2.753841,0.189963 c -0.878283,0.06534 -1.926536,-1.939724 -0.604816,-1.308996 0.280288,0.665099 1.188424,0.80908 0.450347,0.09058 -0.725787,-0.674289 0.370377,-1.16402 0.499389,-0.143992 0.133169,0.528659 0.562323,1.551536 -0.34492,1.362408 z m 0.372532,-0.508813 c 0.414807,-0.525168 -1.105645,-2.169987 -0.235012,-0.826778 -0.107169,0.0053 0.08515,0.936321 0.235012,0.826778 z m 1.04041,-0.789202 c -0.718782,-0.370112 -1.300548,-1.784561 -0.0999,-1.523792 0.196861,-0.237345 0.05485,-1.244052 0.886593,-0.793545 0.308263,0.383601 0.813147,0.784398 0.479501,1.214352 -0.728215,-0.653372 -0.298624,-0.188912 -0.322636,0.39033 -0.40475,-0.0265 -0.910042,-0.187101 -0.344677,0.336744 -0.132045,0.447473 -0.437529,0.04523 -0.598883,0.375911 z m 0.417503,-0.298402 c 0.191148,-0.329887 -0.248264,0.202368 0,0 z m 0.452578,-0.487607 c 0.104623,-0.518079 -0.824844,0.156368 0,0 z m 0.468058,-0.511392 c 0.150345,-0.522778 -1.747051,-1.098669 -0.911077,-0.531826 -0.380195,-0.769864 0.768869,0.844568 0.911077,0.531826 z m -1.802217,-0.02812 c 0.516295,-0.398277 -0.664943,0.17684 0,0 z m 0.782546,-1.014224 c -0.180046,0.08301 -0.09397,0.108067 0,0 z m 1.283356,-8.893296 c -0.607686,-0.422166 -1.665789,-1.735073 -0.433224,-2.194113 0.720578,-0.138566 1.471224,0.117966 1.673365,0.952452 -0.213076,0.699503 -0.28482,1.00422 -0.878024,1.103278 0.14254,0.11528 -0.343414,0.398626 -0.362117,0.138383 z m 0.469519,-0.571372 c 0.618761,-0.474396 -0.928743,0.03924 0,0 z m -0.113823,-0.232243 c 1.434449,-0.658319 -0.821302,-1.241901 -0.408463,-0.150418 -0.09385,0.133674 0.344262,0.225704 0.408463,0.150418 z m 0.713166,-0.133581 c 0.675626,-0.807057 -1.321974,-1.265676 -0.57808,-0.813038 1.030267,-0.03318 -0.183762,1.215938 0.57808,0.813038 z m -1.312872,-0.288527 c 0.573198,-0.688156 -0.448193,-0.21606 0,0 z M 95.72203,83.204442 c -1.233024,-0.423014 -1.04544,-1.821997 0.235228,-1.782975 0.849401,-0.276545 1.885999,1.838651 0.340426,1.739866 -0.17049,-0.05233 -0.420451,0.182498 -0.575654,0.04311 z m 0.498473,-0.123359 c 0.72802,-0.821264 -0.763413,0.08178 0,0 z m -0.166552,-0.291196 c 1.167889,-0.54227 -1.325608,-0.768307 -0.204016,0.0061 z M 95.44904,82.396902 c 0.09373,-0.178439 -0.226621,0.149388 0,0 z m -0.125163,-0.01314 c -0.02932,-0.218765 -0.20626,-0.01629 0,0 z m -0.169734,-0.147207 c 0.718376,-0.665144 -0.268591,-0.177522 0,0 z M 94.0964,81.989234 c -0.224359,-0.227756 0.17289,-1.184827 -0.459868,-0.539387 -0.662975,-0.427296 0.746647,-2.310904 1.362349,-1.090611 1.246345,0.470923 0.259238,1.829006 -0.38284,0.758468 -0.184919,0.147341 -0.0064,1.01717 -0.519641,0.87153 z m 0.307458,-0.498626 c 0.351986,-0.98172 -0.620083,0.162484 -0.04678,0.136495 l 0.02475,-0.07221 z m -0.646174,-0.371901 c -0.109138,-0.319108 -0.430795,0.02783 0,0 z m 0.878318,-0.107789 c -0.175994,-0.228556 -0.280347,0.103569 0,0 z m -0.910605,-0.176081 c 0.625683,-0.944985 -0.02106,-0.146524 0,0 z m 0.642956,-0.778444 c -0.140905,-0.167919 -0.300012,0.06905 0,0 z m -2.474127,0.567699 c -1.119645,0.05352 -1.285724,-1.855539 -0.120426,-2.029096 1.005648,-0.236504 0.950771,0.631673 1.421233,1.07748 0.533349,1.130895 -0.69133,0.774604 -1.300807,0.951616 z m 0.395905,-0.10182 c 0.514369,-0.412481 0.791953,-1.171989 0.08525,-1.49831 0.540869,0.665321 -0.03528,1.493244 -0.76601,1.335921 0.178127,0.178153 0.444432,0.208152 0.680764,0.162389 z m -0.101805,-0.27883 c 1.140723,-0.856798 -0.898031,-1.353288 -0.329707,-0.208689 -0.187498,0.173187 0.205062,0.301438 0.329707,0.208689 z m 0.758494,-0.01319 c -0.02285,0.0051 0.01701,0.05203 0,0 z m -1.290416,-0.609036 c 0.515657,-1.061276 -0.317272,0.511068 0,0 z m -3.846387,19.799753 c -0.812481,-0.0192 -0.61803,-0.799144 -0.473547,-1.519716 -0.478028,0.04265 -0.794075,1.972709 0.315862,1.576298 l 0.11911,0.01773 z m 1.906219,0.05737 C 90.243164,99.250533 90.033181,98.8 89.586959,99.327382 c -1.355916,-0.05277 0.543756,-1.926402 -0.59178,-1.139743 -0.494974,0.72267 0.106275,1.34204 0.721057,1.2907 z m -0.02967,-0.269218 c 0.874583,-0.815898 -0.947603,-1.532813 -0.426556,-0.175556 0.07616,0.14826 0.260914,0.244942 0.426556,0.175556 z m -4.009995,-0.264918 c -1.211083,-0.236349 -0.451744,-1.758635 0.484466,-1.236683 -1.141378,-1.333048 -2.152624,1.607239 -0.484486,1.237515 z M 83.50255,97.993574 c -0.407284,-0.0677 -0.670298,-1.181691 0.05344,-0.68272 0.846783,0.337909 -0.801318,-0.691939 0.14408,-0.652899 1.181299,0.838468 -0.293324,-1.040194 -0.478725,0.07038 -0.645963,0.738482 -0.606919,1.091197 0.281207,1.265238 z m 5.115793,-1.197228 c 0.728696,0.03626 1.203771,-0.442629 1.464725,-0.875826 0.215087,-1.033741 0.468893,-2.279718 0.486703,-3.217719 -0.780891,0.29641 -2.026611,1.593648 -2.588629,0.85644 0.278087,0.748918 0.58567,2.144525 0.562127,2.585782 -0.151861,-1.298466 -0.362845,0.238137 -0.347109,0.639653 0.131763,-0.02673 0.302426,0.109975 0.422183,0.01167 z m -0.538592,-0.187892 c 0.21419,-1.054303 -0.101644,-0.73105 -0.250789,0.108243 l 0.213727,0.04413 z m -0.34134,-0.02324 c 0.292994,-0.755953 0.396782,-1.30253 -0.347047,-0.505943 -0.932464,0.310475 -0.226256,0.486746 0.303172,0.614713 z m -5.944355,-0.0042 c 0.564494,-0.213131 -0.137389,-1.830823 0.701591,-0.799927 0.10806,-1.038566 -1.263915,-0.326143 -0.735458,0.562849 -0.354988,0.01772 -1.016036,-0.748953 -0.477808,0.08674 0.132504,0.125504 0.329026,0.206326 0.511675,0.150333 z m 8.847978,-0.0047 c 0.372936,-0.205471 0.3757,-1.189139 0.516975,-1.735676 0.143265,-0.988535 0.121714,-2.071821 0.662854,-2.832984 0.279005,-0.71982 -0.994831,0.414865 -1.101407,0.712712 -0.16308,1.296386 -0.326898,2.62226 -0.681986,3.871715 0.20111,-0.0079 0.402331,-0.01544 0.603564,-0.01577 z M 86.659931,96.38241 c 1.093217,-0.390263 2.065231,-1.981183 0.995781,-2.723667 -0.988622,0.474997 -3.002992,0.753514 -2.79732,-0.917768 0.238886,-0.580782 -0.65219,-0.771575 -0.286043,-1.31607 -0.282076,-0.699139 -0.299042,-1.470455 -0.816963,-2.035198 0.344965,-0.683799 1.188324,-1.68892 0.173767,-1.955773 -0.238112,-0.321591 0.633925,0.0773 0.0913,-0.631485 0.01045,-1.383862 0.441908,-2.894296 1.373689,-3.968652 0.721115,-0.809028 1.679702,-1.394734 2.719761,-1.693326 -1.465184,0.111761 -2.699743,1.26497 -3.436794,2.473024 -0.455691,0.869888 -0.657402,1.862958 -0.83476,2.814686 0.436937,0.766286 -0.604649,0.813094 0.348972,1.297868 0.421261,0.639749 -1.279357,1.750258 -0.130148,2.383594 0.302383,0.799836 0.193463,1.692803 0.667193,2.367556 -0.420452,1.6289 1.459924,2.054179 2.598878,1.430228 1.111762,-0.213917 0.682251,2.039901 -0.397622,2.086396 -0.112772,-0.0035 -0.527933,0.388134 -0.269691,0.388587 z m 4.930841,-0.177037 c 0.389028,-0.137152 0.580507,-1.716957 0.01374,-0.675088 0.05161,0.127121 -0.520906,1.126071 -0.01374,0.675088 z m 0.568856,-0.322388 c 0.624674,-0.437559 1.639711,-0.627036 0.82142,-1.482698 -0.35682,-0.778458 -0.826901,0.403398 -0.929373,0.918859 0.04063,0.144341 -0.344906,1.008906 0.107953,0.563839 z m -3.838917,-0.627119 c 0.01207,-0.226462 -0.08671,0.03864 0,0 z m 3.038745,-0.183972 c 0.311845,-0.723998 1.618282,-0.720027 1.344018,-1.647506 -0.289904,-1.073688 0.03156,-2.462774 0.04303,-3.362851 -1.250765,-0.04611 -0.205986,2.002195 -1.189287,2.523463 -0.01993,0.689311 -0.427482,2.331648 -0.197758,2.486894 z m 2.15674,0.0072 c -0.22857,-0.363953 -0.798434,-1.944468 -0.351458,-0.543789 0.09942,0.144875 0.199563,0.523884 0.351458,0.543789 z m -1.2558,-0.544267 c -0.108508,-0.111756 0.0543,0.120307 0,0 z m 0.927573,-0.25756 c -0.04056,-0.0751 2e-4,0.100107 0,0 z M 86.254857,93.83972 c 1.499509,-0.438556 -2.39566,-1.716823 -0.88781,-0.129921 0.258706,0.181423 0.590512,0.155654 0.88781,0.129921 z m 6.718066,-0.05471 c -0.0054,-0.432985 -0.381515,-2.466073 -0.233206,-0.977925 0.06639,0.251093 0.03297,0.890128 0.233206,0.977925 z m -6.011198,-0.14335 c 1.226139,-1.350966 0.485668,-3.717489 2.2529,-4.703611 1.012435,-0.525714 1.884471,-0.844659 1.998352,-2.090135 0.858042,-0.724272 -1.025665,-1.083167 -1.031463,-2.063614 -0.500116,-0.674914 -2.193469,-2.412257 -2.752288,-1.045535 -0.296333,0.680105 -1.19432,2.22097 0.239584,1.7627 0.602615,0.131804 1.834744,1.09851 0.58804,0.442612 -0.942533,-0.701217 -2.111198,0.522608 -0.749994,0.822143 1.377025,0.431265 -1.651211,-0.249297 -0.703829,0.09136 0.674251,0.0886 2.084785,0.340202 0.657675,0.724555 -0.40308,0.189107 -1.466296,0.299409 -1.134839,-0.345636 -0.45603,-0.186101 -0.47048,-0.480215 -0.04606,-0.317924 -0.09118,-0.198463 1.1647,-0.145503 0.422518,-0.873172 -0.352331,0.427383 -1.634492,0.267466 -0.712787,-0.237884 1.28782,-0.134042 0.762604,-1.921947 1.663294,-2.656711 -0.900099,-0.117557 -2.079349,-0.09984 -2.709838,0.641131 -0.464811,0.968288 -0.956271,2.312301 -0.346849,2.94469 -0.809204,-0.471626 -0.293356,0.9529 0.185882,0.342988 -0.04047,-1.045424 0.426634,0.986005 -0.205496,1.31571 -0.590556,0.602847 -0.922354,1.439378 0.102291,1.776197 -0.489471,1.138549 1.043462,0.377583 1.62067,1.070755 0.87102,0.13204 -1.50258,0.972329 -1.319538,0.943979 -0.148181,1.082428 1.631842,0.296723 1.872306,1.541458 z M 84.80144,90.742015 c 0.01262,-0.641791 0.293848,-0.126977 0,0 z m 0.457931,-0.704817 c 0.526453,-0.143365 0.455752,-1.116975 0.42645,-0.153758 -0.09837,0.131236 -0.273425,0.164301 -0.42645,0.153758 z m -0.243844,-0.132257 c -1.412412,-0.08304 0.463605,-0.352208 0,0 z m 2.36283,3.65188 c 1.415718,-0.598597 3.212285,-0.955332 3.997641,-2.424306 0.942241,-1.076354 -0.489676,-2.055917 -0.653345,-2.856864 -1.20497,0.472368 -2.530904,1.282257 -2.682657,2.698899 0.02891,0.785209 -0.823558,2.475665 -0.661639,2.582271 z m -2.077444,-1.607565 c 0.79212,-0.201046 1.306851,-0.70917 0.124082,-0.603265 -0.716234,-0.136684 -1.306816,0.80663 -0.124082,0.603265 z m -0.28738,-0.648748 c 0.603057,-0.189922 1.726419,0.218668 0.503424,-0.285601 -0.496888,-0.491561 -1.737998,0.212588 -0.503424,0.285601 z m 7.863175,-0.18681 c 0.529069,-0.388387 0.342869,-1.917062 -0.0048,-0.679787 0.0088,0.163647 -0.311534,1.332524 0.0048,0.679787 z m -1.148646,-0.26571 c -0.036,-0.06302 -0.04073,0.103938 0,0 z m -7.199001,-0.276769 c 0.171769,-0.963551 -0.396551,-0.225252 0,0 z m 8.938308,-0.518874 c 0.956673,-0.769558 1.381439,-2.021367 1.511029,-3.220796 0.04759,-0.586415 0.115788,-1.694332 -0.495077,-0.604341 -1.077286,0.496617 0.459622,2.060345 -0.582994,2.955137 -0.203188,0.06161 -0.916687,1.396123 -0.432958,0.87 z m -0.750417,-0.109434 c 1.702581,-0.42678 2.050176,-3.385246 0.243512,-3.895234 -2.107292,-0.279056 -2.775572,3.358223 -0.777319,3.91258 l 0.268942,0.01224 z m -0.193656,-0.487086 c -1.563753,-0.355487 -0.98503,-3.092959 0.543674,-2.931416 1.584271,0.331402 1.058304,3.18814 -0.543674,2.931416 z m 0.358782,-0.112778 c 1.261282,-0.242796 1.434491,-2.577677 0.03883,-2.70592 -0.67286,-0.269204 -1.531278,1.675148 -0.754325,0.511466 1.030443,-0.846955 2.058385,1.09211 0.949392,1.899828 -0.117878,0.514565 -1.504023,-0.113231 -0.465404,0.306474 z M 92.498569,88.86978 c -0.46553,-0.357841 -0.367362,-1.529229 -0.511432,-0.322654 -0.0092,0.302129 0.293575,0.308128 0.511432,0.322654 z m 0.454718,-0.08055 c 0.843245,-0.340757 -1.08609,0.198376 -0.596599,-0.837303 -0.100459,-0.856883 1.668377,-0.768768 0.291119,-0.715045 -0.566038,0.32548 -0.558182,1.721599 0.30548,1.552348 z m 0.03965,-0.135398 c 0.60892,-0.26731 0.375755,-1.765457 -0.327218,-1.217598 -0.379529,0.319192 -0.332441,1.344082 0.327218,1.217598 z m -8.397716,-0.554887 c 0.179966,-0.559771 -0.30973,0.534977 0,0 z m 0.114483,-0.405715 c 0.347054,-0.513171 -0.587843,0.03137 0,0 z m 1.867093,-0.09701 c -0.02175,-0.626394 -0.413115,0.172355 0,0 z m 0.604138,-0.09288 c 0.933718,-0.350947 -0.530236,-0.36119 0,0 z M 86.87216,87.4839 c 0.323992,-0.752373 -0.215288,0.08431 -0.292719,-0.237722 -0.0087,0.139517 0.13045,0.341 0.292719,0.237722 z m -2.02821,-0.265013 c -0.188259,-0.279996 -0.641779,0.1444 -0.0089,0.07466 z m 9.145765,-0.785428 c 0.808051,-0.443115 0.678855,-0.89105 0.788227,-1.572702 -0.257048,-1.049978 -0.867564,-1.996881 -2.00055,-2.142245 -1.154251,-0.021 -2.292006,0.476633 -3.09676,1.297072 0.820617,0.63426 0.916282,1.939367 1.997532,2.258068 0.748888,-0.665734 1.691112,-0.262483 2.311551,0.159807 z M 81.038144,84.455555 c -0.170797,-0.464636 -1.584524,-0.950034 -0.179629,-0.708923 1.59851,0.412848 -0.143725,-1.218606 -0.552534,-0.820576 0.365493,0.3217 1.614925,0.858295 0.37337,0.602076 -1.011475,-0.294506 -0.989866,0.377604 -0.14719,0.704906 0.138754,-0.08415 0.401288,0.53366 0.505983,0.222517 z m 8.630245,-0.589201 c 0.827362,-0.983293 2.237184,-1.152552 3.328385,-1.366868 1.028604,0.261908 -0.878222,-0.947579 -1.393338,-1.05245 -1.078244,0.0047 -2.108535,0.249813 -3.008262,0.949495 -0.560335,0.366501 -0.971608,0.82022 -0.0431,0.891566 0.367954,0.022 0.845274,0.690649 1.11632,0.578257 z m -4.097084,-0.654148 c 1.180352,-0.412064 2.432914,0.128826 3.220721,-1.100381 0.543578,-0.405137 2.754767,-1.020423 0.921077,-0.972242 -1.748823,-0.02819 -3.510857,0.809709 -4.517352,2.254022 0.122631,-0.06559 0.242804,-0.136102 0.375554,-0.181399 z m -3.066803,-0.68349 c 1.969059,-1.267362 -2.035551,-2.100175 -0.653845,-0.184787 0.172685,0.166224 0.419401,0.241308 0.653845,0.184787 z m -0.251086,-0.234649 c -1.510376,-0.883739 1.04925,-1.531709 0.457193,-0.09515 -0.109017,0.133405 -0.305416,0.143263 -0.457193,0.09515 z m 2.31238,-1.231772 c 0.333372,-0.570089 -0.534815,-2.561865 -0.226562,-0.822906 0.713241,1.600839 -1.302811,-1.057825 -0.856901,0.0086 0.357571,0.187361 0.694706,0.892441 1.083463,0.814294 z m 1.979823,-0.788369 c 1.176943,-0.327471 -0.437404,-2.68919 0.182883,-0.801074 0.09164,1.281964 -1.041102,0.133569 -0.881295,-0.591168 -0.570505,-0.02594 0.155857,1.755746 0.698412,1.392242 z m 2.164362,-0.331815 c 1.16077,-0.527563 -1.266831,-1.296471 0.184057,-1.394671 -0.52862,-0.614255 -1.272978,0.80263 -0.116972,0.858441 0.292039,0.60199 -1.399589,0.23015 -0.235875,0.558933 l 0.16879,-0.0227 z"
       inkscape:export-filename="path639.svg"
       inkscape:export-xdpi="106.667"
       inkscape:export-ydpi="106.667" /></g></svg>
